<svg xmlns="http://www.w3.org/2000/svg" width="1900" height="778.272" viewBox="0 0 1900 778.272">
  <defs>
    <style>
      .a {
        fill: #edf7fc;
      }

      .a, .b {
        stroke: #000;
        stroke-linecap: round;
        stroke-linejoin: round;
        stroke-width: 4.662px;
      }

      .b {
        fill: none;
      }
    </style>
  </defs>
  <title>YCUZD_240315_paralelograms_r1Asset 1</title>
  <g>
    <polygon class="a" points="1356.67 708.642 47.321 708.642 536.85 68.642 1846.198 68.642 1356.67 708.642"/>
    <path d="M13.427,757.129,7.553,774.915H0l19.208-56.552h8.765l19.3,56.552H39.628l-6.037-17.786Zm18.649-5.712L26.551,735.1c-1.259-3.683-2.1-6.993-2.937-10.327h-.3c-.839,3.357-1.772,6.807-2.867,10.257l-5.525,16.318Z"/>
    <path d="M495.356.015h16.9c7.972,0,13.706,1.188,17.273,3.566a12.588,12.588,0,0,1,5.315,11.259,12.987,12.987,0,0,1-2.961,8.788,14.286,14.286,0,0,1-8.671,4.5v.4q13.637,2.331,13.637,14.359a15.385,15.385,0,0,1-5.362,12.541,23.3,23.3,0,0,1-15.175,4.5h-20.98Zm6.993,25.641h11.493A18.759,18.759,0,0,0,524.5,23.325a8.973,8.973,0,0,0,3.24-7.809,7.926,7.926,0,0,0-3.613-7.273,22.482,22.482,0,0,0-11.469-2.331H502.4Zm0,5.9V53.979h12.5a17.854,17.854,0,0,0,10.933-2.8,10.377,10.377,0,0,0,3.66-8.788,9.325,9.325,0,0,0-3.753-8.206,19.979,19.979,0,0,0-11.4-2.634Z"/>
    <path d="M1883.519,6.239a19.558,19.558,0,0,0-15.6,6.573c-3.823,4.383-5.711,10.4-5.711,18.02s1.818,13.986,5.5,18.159a19.559,19.559,0,0,0,15.712,6.433,54.251,54.251,0,0,0,14.313-2.331V59.2a44.051,44.051,0,0,1-15.385,2.331q-13.218,0-20.421-8.042t-7.179-22.822a36.061,36.061,0,0,1,3.449-16.317,24.878,24.878,0,0,1,10-10.723A30.3,30.3,0,0,1,1883.519.015,36.962,36.962,0,0,1,1900,3.465l-2.937,5.874A31.81,31.81,0,0,0,1883.519,6.239Z"/>
    <path d="M1412.989,747.758q0,14.824-8.042,22.681t-23.171,7.833h-16.6V718.363h18.346q13.986,0,21.726,7.762T1412.989,747.758Zm-7.366.233c0-7.809-1.958-13.707-5.9-17.647s-9.744-5.944-17.46-5.944h-10.14v47.857h8.485q12.483,0,18.649-6.13c4.1-4.08,6.387-10.117,6.387-18.136Z"/>
    <line class="b" x1="1103.118" y1="89.039" x2="1138.713" y2="46.543"/>
    <line class="b" x1="764.643" y1="729.901" x2="800.263" y2="687.406"/>
    <g>
      <line class="b" x1="1570.477" y1="406.58" x2="1624.279" y2="407.349"/>
      <line class="b" x1="1570.71" y1="388.654" x2="1624.535" y2="389.399"/>
    </g>
    <g>
      <line class="b" x1="258.681" y1="406.58" x2="312.482" y2="407.349"/>
      <line class="b" x1="258.914" y1="388.654" x2="312.739" y2="389.399"/>
    </g>
  </g>
</svg>
