<svg xmlns="http://www.w3.org/2000/svg" width="914.61" height="341.11" viewBox="0 0 914.61 341.11">
  <defs>
    <style>
      .cls-1 {
        fill: #edf7fc;
        stroke: #000;
        stroke-miterlimit: 10;
        stroke-width: 2px;
      }

      .cls-2 {
        fill: none;
      }
    </style>
  </defs>
  <title>YCUZD_080623_5270_1</title>
  <g id="Layer_2" data-name="Layer 2">
    <g id="Layer_1-2" data-name="Layer 1">
      <path d="M401.4,11.17h7.28q4.81,0,7.24,1.44t2.43,4.9a6.1,6.1,0,0,1-.58,2.68,5,5,0,0,1-1.66,2,6.61,6.61,0,0,1-2.69,1.07v.18a9.3,9.3,0,0,1,3,1,5.09,5.09,0,0,1,2,2,6.3,6.3,0,0,1,.74,3.21,7.05,7.05,0,0,1-1.1,4A6.79,6.79,0,0,1,415,36a12.26,12.26,0,0,1-4.75.83H401.4Zm3,11h4.92q3.36,0,4.65-1.11a4,4,0,0,0,1.29-3.23,3.45,3.45,0,0,0-1.54-3.17,9.5,9.5,0,0,0-4.89-1h-4.43Zm0,2.51v9.62h5.34c2.29,0,3.9-.45,4.85-1.35A4.77,4.77,0,0,0,416,29.34a4.7,4.7,0,0,0-.64-2.49,4,4,0,0,0-2.08-1.6,11,11,0,0,0-3.82-.55Z"/>
      <path d="M758.06,13.43a9.71,9.71,0,0,0-3.82.73,7.86,7.86,0,0,0-2.88,2.11,9.56,9.56,0,0,0-1.82,3.33,14.29,14.29,0,0,0-.64,4.4,14.16,14.16,0,0,0,1,5.61,8,8,0,0,0,3,3.69,9.16,9.16,0,0,0,5,1.3,17.67,17.67,0,0,0,3.24-.29c1-.2,2-.44,3-.73v2.6a15.79,15.79,0,0,1-2.95.78,22.92,22.92,0,0,1-3.68.26A12.25,12.25,0,0,1,751,35.59a9.93,9.93,0,0,1-3.94-4.6,17.13,17.13,0,0,1-1.31-7,16.38,16.38,0,0,1,.82-5.33A11.72,11.72,0,0,1,749,14.47a10.6,10.6,0,0,1,3.86-2.72,13.76,13.76,0,0,1,5.27-.95,18.51,18.51,0,0,1,3.76.38,14,14,0,0,1,3.27,1.11l-1.2,2.53a18.82,18.82,0,0,0-2.69-1A11.53,11.53,0,0,0,758.06,13.43Z"/>
      <path d="M903.7,317.83a15,15,0,0,1-1.58,7.25,10.17,10.17,0,0,1-4.58,4.38,16.39,16.39,0,0,1-7.27,1.46h-7V305.23h7.76a14.74,14.74,0,0,1,6.75,1.43,10,10,0,0,1,4.36,4.23A14.22,14.22,0,0,1,903.7,317.83Zm-3.14.1a12.48,12.48,0,0,0-1.16-5.71,7.39,7.39,0,0,0-3.37-3.35,12.24,12.24,0,0,0-5.44-1.1h-4.31v20.59h3.64c3.54,0,6.2-.88,8-2.62S900.56,321.39,900.56,317.93Z"/>
      <path d="M30.68,330.92l-3.17-8.15H17.21l-3.14,8.15H11l10.06-25.8h2.69l10,25.8Zm-4.06-10.81-3-8.1-.34-1-.49-1.49c-.16-.52-.3-.93-.4-1.25-.12.48-.24,1-.38,1.43s-.27.92-.39,1.32-.24.75-.34,1l-3.06,8.1Z"/>
      <polygon class="cls-1" points="868.28 295.13 55.6 295.13 420.24 48.12 741.03 48.12 868.28 295.13"/>
      <rect class="cls-2" width="914.61" height="341.11"/>
    </g>
  </g>
</svg>
